<?xml version="1.0" encoding="utf-8"?>
<!-- Generator: Adobe Illustrator 16.0.0, SVG Export Plug-In . SVG Version: 6.00 Build 0)  -->
<!DOCTYPE svg PUBLIC "-//W3C//DTD SVG 1.1//EN" "http://www.w3.org/Graphics/SVG/1.1/DTD/svg11.dtd">
<svg version="1.1" id="Layer_1" xmlns="http://www.w3.org/2000/svg" xmlns:xlink="http://www.w3.org/1999/xlink" x="0px" y="0px"
	 width="250px" height="250px" viewBox="0 0 250 250" enable-background="new 0 0 250 250" xml:space="preserve">
<path id="XMLID_67_" fill="#44C2E4" d="M226.275,131.774c-0.95-0.724-1.644-1.735-1.976-2.883
	c-5.094-17.604-21.465-29.899-39.812-29.899c-3.38,0-6.747,0.41-10.009,1.219c-2.252,0.558-4.613-0.338-5.928-2.248
	c-8.563-12.438-22.674-19.865-37.748-19.865c-11.462,0-22.43,4.256-30.883,11.982c-8.4,7.679-13.62,18.118-14.697,29.395
	c-0.187,1.95-1.383,3.659-3.153,4.5c-0.551,0.262-1.106,0.547-1.65,0.848c-0.465,0.257-0.963,0.446-1.481,0.562
	c-7.728,1.724-14.748,6.067-19.767,12.229c-5.157,6.332-7.882,13.996-7.882,22.162c0,19.437,15.903,35.25,35.45,35.25h118.007
	c19.547,0,35.449-15.813,35.449-35.25C240.196,148.718,235.122,138.511,226.275,131.774z"/>
<path id="XMLID_65_" fill="#E6C705" d="M51.498,104.208c0,6.956,2.567,13.519,7.154,18.576c4.749-3.573,10.158-6.239,15.915-7.792
	c1.997-12.709,8.251-24.37,17.838-33.134c0.45-0.412,0.908-0.812,1.37-1.208c-4.335-2.695-9.342-4.141-14.579-4.141
	C63.923,76.51,51.498,88.936,51.498,104.208z"/>
<path id="XMLID_55_" fill="#E6C705" d="M79.195,61.627c3.076,0,5.57-2.494,5.57-5.569V40.387c0-3.076-2.494-5.57-5.57-5.57
	s-5.569,2.494-5.569,5.57v15.671C73.626,59.133,76.119,61.627,79.195,61.627z"/>
<path id="XMLID_54_" fill="#E6C705" d="M50.296,65.293c1.032,1.787,2.904,2.786,4.829,2.786c0.945,0,1.902-0.241,2.779-0.747
	c2.664-1.538,3.577-4.944,2.039-7.608l-7.835-13.571c-1.538-2.664-4.945-3.577-7.608-2.039c-2.664,1.538-3.577,4.944-2.039,7.608
	L50.296,65.293z"/>
<path id="XMLID_53_" fill="#E6C705" d="M21.14,77.121l13.571,7.835c0.877,0.507,1.834,0.748,2.78,0.748
	c1.925,0,3.797-0.999,4.829-2.786c1.538-2.664,0.625-6.07-2.039-7.608l-13.571-7.836c-2.664-1.538-6.07-0.625-7.608,2.039
	S18.476,75.583,21.14,77.121z"/>
<path id="XMLID_52_" fill="#E6C705" d="M15.374,109.778h15.671c3.076,0,5.57-2.494,5.57-5.57s-2.494-5.57-5.57-5.57H15.374
	c-3.076,0-5.57,2.494-5.57,5.57S12.298,109.778,15.374,109.778z"/>
<path id="XMLID_51_" fill="#E6C705" d="M42.319,125.498c-1.538-2.664-4.945-3.577-7.608-2.038l-13.571,7.835
	c-2.664,1.538-3.577,4.944-2.039,7.608c1.032,1.787,2.904,2.786,4.829,2.786c0.945,0,1.902-0.241,2.78-0.747l13.571-7.836
	C42.945,131.569,43.857,128.162,42.319,125.498z"/>
<path id="XMLID_50_" fill="#E6C705" d="M100.486,67.332c0.877,0.506,1.834,0.747,2.78,0.747c1.925,0,3.797-0.999,4.829-2.786
	l7.835-13.572c1.538-2.664,0.625-6.07-2.039-7.608c-2.665-1.538-6.07-0.625-7.609,2.039l-7.835,13.571
	C96.909,62.388,97.822,65.794,100.486,67.332z"/>
</svg>
