<?xml version="1.0" encoding="utf-8"?>
<!-- Generator: Adobe Illustrator 16.0.0, SVG Export Plug-In . SVG Version: 6.00 Build 0)  -->
<!DOCTYPE svg PUBLIC "-//W3C//DTD SVG 1.1//EN" "http://www.w3.org/Graphics/SVG/1.1/DTD/svg11.dtd">
<svg version="1.1" id="Layer_1" xmlns="http://www.w3.org/2000/svg" xmlns:xlink="http://www.w3.org/1999/xlink" x="0px" y="0px"
	 width="826px" height="83px" viewBox="0 0 826 83" enable-background="new 0 0 826 83" xml:space="preserve">
<rect x="-31" y="-48" display="none" fill="#D6EBFF" width="839" height="166"/>
<g>
	<g>
		<g>
			<path fill="#547DBF" d="M118.261,42.025c-1.906-16.117,21.428-19.103,20.288-3.304c-1.111,15.382-23.213,20.414-39.112,12.972
				c4.7-4.84,7.932-11.569,8.706-20.512C110.766,0.91,63.746,0.032,69.612,35.33c-2.508-21.202,28.189-25.128,26.689-4.346
				C95.098,47.65,75.159,55.088,56.477,51.727c2.336-3.358,3.907-7.604,4.362-12.855C62.833,15.86,27.09,15.193,31.55,42.025
				c-1.907-16.117,21.428-19.103,20.288-3.304C50.549,56.579,20.96,60.502,5.641,47.135c5.184,13.567,31.151,20.288,45.597,9.904
				c14.064,6.572,33.666,6.875,45.859-3.205c13.756,12.585,48.017,13.143,50.453-14.964
				C149.544,15.859,113.801,15.192,118.261,42.025z"/>
			<path fill="#547DBF" d="M68.694,68.479c-21.21-11.533-27.771,12.838-57.312-2.146c23.41,21.728,35.796-3.257,57.006,8.274
				c21.209,11.531,37.196-11.252,53.155-4.291C102.826,58.452,89.904,80.009,68.694,68.479z"/>
		</g>
	</g>
</g>
<g>
	<path fill="#547DBF" d="M201.888,24.994h20.304c1.984,0,3.672,0.696,5.064,2.088c1.392,1.392,2.088,3.064,2.088,5.016v27.457
		h-7.536V48.418h-19.584v11.137h-7.44V32.098c0-1.984,0.688-3.664,2.064-5.04C198.224,25.683,199.904,24.994,201.888,24.994z
		 M202.224,40.93h19.584v-8.448h-19.584V40.93z"/>
	<path fill="#547DBF" d="M233.088,38.674c0-1.888,0.68-3.52,2.04-4.896c1.36-1.375,3-2.064,4.92-2.064h21.312v38.879h-7.344V59.555
		h-13.968c-1.92,0-3.56-0.688-4.92-2.064c-1.36-1.375-2.04-3.008-2.04-4.896V38.674z M240.48,39.058V52.21h13.536V39.058H240.48z"/>
	<path fill="#547DBF" d="M286.607,31.714h7.344v20.879c0,1.889-0.68,3.521-2.04,4.896c-1.36,1.376-3,2.064-4.92,2.064h-14.304
		c-1.92,0-3.56-0.688-4.92-2.064c-1.36-1.375-2.04-3.008-2.04-4.896V31.714h7.344V52.21h13.536V31.714z"/>
	<path fill="#547DBF" d="M320.302,31.714c1.92,0,3.56,0.688,4.92,2.064c1.359,1.376,2.04,3.008,2.04,4.896v20.88h-21.264
		c-1.92,0-3.561-0.688-4.92-2.064c-1.361-1.375-2.04-3.008-2.04-4.896V41.938h20.88v-2.88h-20.88v-7.344H320.302z M319.919,52.21
		v-3.84h-13.536v3.84H319.919z"/>
	<path fill="#547DBF" d="M331.055,22.546h7.392V52.21h5.616v7.345h-6.048c-1.889,0-3.521-0.688-4.896-2.064
		c-1.376-1.375-2.064-3.008-2.064-4.896V22.546z"/>
	<path fill="#547DBF" d="M369.022,31.714c1.92,0,3.56,0.688,4.92,2.064c1.359,1.376,2.04,3.008,2.04,4.896v20.88h-21.264
		c-1.92,0-3.561-0.688-4.92-2.064c-1.361-1.375-2.04-3.008-2.04-4.896V41.938h20.88v-2.88h-20.88v-7.344H369.022z M368.638,52.21
		v-3.84h-13.536v3.84H368.638z"/>
	<path fill="#547DBF" d="M401.998,31.714c1.92,0,3.559,0.688,4.92,2.064c1.359,1.376,2.04,3.008,2.04,4.896v20.88h-7.345V39.058
		h-13.536v20.497h-7.344v-27.84H401.998z"/>
	<path fill="#547DBF" d="M433.582,22.594h7.344v36.96h-21.312c-1.921,0-3.561-0.688-4.921-2.064c-1.36-1.375-2.04-3.008-2.04-4.896
		V38.674c0-1.888,0.68-3.52,2.04-4.896c1.36-1.375,3-2.064,4.921-2.064h13.968V22.594z M420.046,39.058V52.21h13.536V39.058H420.046
		z"/>
	<path fill="#547DBF" d="M510.525,32.098v6.48c0,0.896-0.112,1.632-0.336,2.208c1.12,1.409,1.68,2.912,1.68,4.513v7.151
		c0,1.952-0.695,3.624-2.088,5.017c-1.392,1.392-3.08,2.088-5.063,2.088h-27.408V24.994h26.112c1.951,0,3.624,0.696,5.016,2.088
		C509.828,28.474,510.525,30.146,510.525,32.098z M484.749,32.482v5.76h18.239v-5.76H484.749z M484.749,45.73v6.336h19.584V45.73
		H484.749z"/>
	<path fill="#547DBF" d="M516.908,22.546h7.392V52.21h5.616v7.345h-6.048c-1.889,0-3.521-0.688-4.896-2.064
		c-1.376-1.375-2.063-3.008-2.063-4.896V22.546z"/>
	<path fill="#547DBF" d="M554.539,31.714h7.344v20.879c0,1.889-0.68,3.521-2.04,4.896c-1.36,1.376-3,2.064-4.92,2.064h-14.304
		c-1.92,0-3.561-0.688-4.92-2.064c-1.36-1.375-2.04-3.008-2.04-4.896V31.714h7.344V52.21h13.536V31.714z"/>
	<path fill="#547DBF" d="M586.988,31.714c1.92,0,3.56,0.688,4.92,2.064c1.36,1.376,2.04,3.008,2.04,4.896V49.33h-20.88v2.88h20.88
		v7.345h-21.264c-1.889,0-3.521-0.688-4.896-2.064c-1.376-1.375-2.063-3.008-2.063-4.896V38.674c0-1.888,0.688-3.52,2.063-4.896
		c1.376-1.375,3.008-2.064,4.896-2.064H586.988z M573.068,42.898h13.536v-3.84h-13.536V42.898z"/>
	<path fill="#547DBF" d="M637.097,24.994h20.352c1.951,0,3.624,0.696,5.017,2.088c1.392,1.392,2.088,3.064,2.088,5.016V52.45
		c0,1.952-0.696,3.624-2.088,5.017c-1.393,1.392-3.065,2.088-5.017,2.088h-20.352c-1.984,0-3.665-0.688-5.04-2.064
		c-1.377-1.375-2.064-3.056-2.064-5.04V32.098c0-1.984,0.688-3.664,2.064-5.04C633.432,25.683,635.113,24.994,637.097,24.994z
		 M637.433,32.482v19.584h19.584V32.482H637.433z"/>
	<path fill="#547DBF" d="M697.431,62.578c0,1.92-0.681,3.56-2.04,4.92c-1.36,1.36-3,2.04-4.92,2.04h-16.896v-7.392h16.513v-2.592
		h-13.92c-1.921,0-3.569-0.688-4.944-2.064c-1.376-1.375-2.064-3.008-2.064-4.896V31.81h7.345v20.4h13.584v-20.4h7.344V62.578z"/>
	<path fill="#547DBF" d="M730.119,38.674v1.392h-7.393v-1.008h-13.535v2.88h13.92c1.951,0,3.607,0.681,4.968,2.041
		c1.359,1.36,2.04,3,2.04,4.92v3.695c0,1.889-0.681,3.521-2.04,4.896c-1.36,1.376-3.017,2.064-4.968,2.064h-14.305
		c-1.888,0-3.521-0.688-4.896-2.064c-1.376-1.375-2.064-3.008-2.064-4.896v-1.392h7.345v1.008h13.535v-2.88h-13.92
		c-1.888,0-3.521-0.688-4.896-2.064c-1.376-1.375-2.064-3.007-2.064-4.896v-3.696c0-1.888,0.688-3.52,2.064-4.896
		c1.375-1.375,3.008-2.064,4.896-2.064h14.305c1.951,0,3.607,0.688,4.968,2.064C729.439,35.154,730.119,36.787,730.119,38.674z"/>
	<path fill="#547DBF" d="M752.679,39.058h-10.32V52.21h10.32v7.345h-10.656c-1.952,0-3.608-0.688-4.968-2.064
		c-1.36-1.375-2.04-3.008-2.04-4.896V23.458h7.344v8.256h10.32V39.058z"/>
	<path fill="#547DBF" d="M777.83,31.714c1.92,0,3.56,0.688,4.92,2.064c1.36,1.376,2.04,3.008,2.04,4.896V49.33h-20.88v2.88h20.88
		v7.345h-21.264c-1.889,0-3.521-0.688-4.896-2.064c-1.376-1.375-2.063-3.008-2.063-4.896V38.674c0-1.888,0.688-3.52,2.063-4.896
		c1.376-1.375,3.008-2.064,4.896-2.064H777.83z M763.91,42.898h13.536v-3.84H763.91V42.898z"/>
	<path fill="#547DBF" d="M796.503,31.714h15.36v7.344h-15.024v20.497h-7.344v-20.88c0-1.888,0.688-3.52,2.063-4.896
		C792.935,32.403,794.583,31.714,796.503,31.714z"/>
</g>
</svg>
