<?xml version="1.0" encoding="utf-8"?>
<!-- Generator: Adobe Illustrator 16.0.0, SVG Export Plug-In . SVG Version: 6.00 Build 0)  -->
<!DOCTYPE svg PUBLIC "-//W3C//DTD SVG 1.1//EN" "http://www.w3.org/Graphics/SVG/1.1/DTD/svg11.dtd">
<svg version="1.1" id="Layer_1" xmlns="http://www.w3.org/2000/svg" xmlns:xlink="http://www.w3.org/1999/xlink" x="0px" y="0px"
	 width="250px" height="250px" viewBox="0 0 250 250" enable-background="new 0 0 250 250" xml:space="preserve">
<path id="XMLID_76_" fill="#44C2E4" d="M97.809,117.402c0-21.896,19.806-39.709,44.151-39.709c5.26,0,10.358,0.811,15.211,2.415
	c5.026-5.146,11.562-8.861,18.781-10.766c-6.432-12.997-19.892-21.62-34.741-21.62c-3.158,0-6.305,0.384-9.354,1.14
	c-2.252,0.56-4.613-0.337-5.928-2.248c-8.008-11.633-21.206-18.578-35.304-18.578c-10.72,0-20.978,3.979-28.883,11.206
	c-7.856,7.182-12.738,16.945-13.746,27.491c-0.186,1.95-1.383,3.659-3.152,4.5c-0.512,0.244-1.03,0.51-1.538,0.791
	c-0.464,0.257-0.963,0.446-1.482,0.562c-7.211,1.609-13.763,5.662-18.446,11.413c-4.812,5.908-7.355,13.059-7.355,20.68
	c0,18.137,14.84,32.893,33.082,32.893h39.721c1.095-6.771,4.188-13.138,9.023-18.47C97.822,118.533,97.809,117.966,97.809,117.402z"
	/>
<path id="XMLID_38_" fill="#44C2E4" d="M64.767,221.964c0.541,0,1.09-0.079,1.634-0.245c2.941-0.901,4.595-4.017,3.693-6.958
	l-6.706-21.882c-0.901-2.94-4.016-4.595-6.957-3.693s-4.595,4.017-3.693,6.958l6.706,21.882
	C60.178,220.423,62.383,221.964,64.767,221.964z"/>
<path id="XMLID_37_" fill="#44C2E4" d="M111.407,221.964c0.54,0,1.09-0.079,1.634-0.245c2.941-0.901,4.594-4.017,3.693-6.958
	l-6.706-21.882c-0.901-2.94-4.017-4.595-6.958-3.693c-2.941,0.901-4.594,4.017-3.693,6.958l6.706,21.882
	C106.818,220.423,109.023,221.964,111.407,221.964z"/>
<path id="XMLID_36_" fill="#44C2E4" d="M158.047,221.964c0.54,0,1.09-0.079,1.633-0.245c2.941-0.901,4.596-4.017,3.693-6.958
	l-6.705-21.882c-0.902-2.94-4.017-4.595-6.957-3.693c-2.941,0.901-4.596,4.017-3.693,6.958l6.705,21.882
	C153.458,220.423,155.663,221.964,158.047,221.964z"/>
<path id="XMLID_35_" fill="#3591A6" d="M217.977,118.337c-2.891-1.046-4.387-4.235-3.344-7.127c0.857-2.377,1.293-4.854,1.293-7.36
	c0-10.571-7.707-19.615-18.526-23.185c-3.185-1.051-6.638-1.632-10.245-1.632c-1.889,0-3.75,0.165-5.565,0.474
	c-7.428,1.264-14.056,5.022-18.371,10.591c-1.556,2.007-4.272,2.707-6.604,1.704c-4.576-1.97-9.507-2.969-14.653-2.969
	c-18.203,0-33.012,12.815-33.012,28.569c0,1.012,0.064,2.047,0.192,3.073c0.215,1.741-0.403,3.482-1.667,4.699
	c-3.683,3.54-6.171,7.818-7.287,12.396c-0.438,1.802-0.672,3.648-0.672,5.517c0,1.929,0.242,3.809,0.692,5.623
	c2.999,12.098,15.462,21.197,30.343,21.197h75.475c17.112,0,31.035-12.031,31.035-26.82
	C237.059,132.248,229.568,122.533,217.977,118.337z"/>
</svg>
