<?xml version="1.0" encoding="utf-8"?>
<!-- Generator: Adobe Illustrator 16.0.0, SVG Export Plug-In . SVG Version: 6.00 Build 0)  -->
<!DOCTYPE svg PUBLIC "-//W3C//DTD SVG 1.1//EN" "http://www.w3.org/Graphics/SVG/1.1/DTD/svg11.dtd">
<svg version="1.1" id="Layer_1" xmlns="http://www.w3.org/2000/svg" xmlns:xlink="http://www.w3.org/1999/xlink" x="0px" y="0px"
	 width="250px" height="250px" viewBox="0 0 250 250" enable-background="new 0 0 250 250" xml:space="preserve">
<path id="XMLID_66_" fill="#E6C705" d="M125,177.337c28.858,0,52.337-23.478,52.337-52.337c0-28.858-23.479-52.338-52.337-52.338
	c-28.859,0-52.338,23.479-52.338,52.338C72.663,153.859,96.141,177.337,125,177.337z"/>
<path id="XMLID_34_" fill="#E6C705" d="M119.43,48.976c0,3.076,2.494,5.57,5.57,5.57c3.075,0,5.569-2.494,5.569-5.57V25.383
	c0-3.076-2.494-5.57-5.569-5.57c-3.076,0-5.57,2.494-5.57,5.57V48.976z"/>
<path id="XMLID_33_" fill="#E6C705" d="M119.43,201.023v23.594c0,3.076,2.494,5.57,5.57,5.57c3.075,0,5.569-2.494,5.569-5.57
	v-23.594c0-3.076-2.494-5.569-5.569-5.569C121.924,195.454,119.43,197.947,119.43,201.023z"/>
<path id="XMLID_32_" fill="#E6C705" d="M86.994,64.731c0.944,0,1.902-0.24,2.779-0.747c2.664-1.537,3.577-4.944,2.039-7.608
	L80.015,35.943c-1.538-2.663-4.945-3.576-7.608-2.038c-2.664,1.538-3.577,4.944-2.039,7.608l11.797,20.433
	C83.196,63.732,85.068,64.731,86.994,64.731z"/>
<path id="XMLID_31_" fill="#E6C705" d="M160.227,186.015c-2.664,1.538-3.577,4.944-2.039,7.608l11.797,20.433
	c1.032,1.787,2.904,2.786,4.829,2.786c0.945,0,1.902-0.241,2.78-0.747c2.663-1.538,3.576-4.944,2.038-7.608l-11.797-20.433
	C166.297,185.39,162.891,184.478,160.227,186.015z"/>
<path id="XMLID_30_" fill="#E6C705" d="M33.905,72.406c-1.537,2.664-0.625,6.071,2.039,7.608l20.433,11.797
	c0.877,0.507,1.835,0.747,2.78,0.747c1.924,0,3.797-0.999,4.828-2.786c1.538-2.663,0.625-6.07-2.039-7.608L41.513,70.368
	C38.85,68.83,35.443,69.742,33.905,72.406z"/>
<path id="XMLID_29_" fill="#E6C705" d="M214.056,169.985l-20.433-11.798c-2.663-1.536-6.07-0.625-7.608,2.039
	s-0.625,6.07,2.039,7.608l20.433,11.798c0.877,0.506,1.834,0.746,2.779,0.746c1.925,0,3.797-0.999,4.829-2.785
	C217.633,174.93,216.72,171.523,214.056,169.985z"/>
<path id="XMLID_28_" fill="#E6C705" d="M54.545,125c0-3.076-2.493-5.569-5.569-5.569H25.383c-3.076,0-5.57,2.493-5.57,5.569
	s2.494,5.569,5.57,5.569h23.593C52.052,130.569,54.545,128.076,54.545,125z"/>
<path id="XMLID_27_" fill="#E6C705" d="M224.618,119.431h-23.594c-3.076,0-5.57,2.493-5.57,5.569s2.494,5.569,5.57,5.569h23.594
	c3.076,0,5.569-2.493,5.569-5.569S227.694,119.431,224.618,119.431z"/>
<path id="XMLID_26_" fill="#E6C705" d="M56.376,158.188l-20.433,11.798c-2.664,1.538-3.576,4.944-2.039,7.608
	c1.032,1.786,2.904,2.785,4.829,2.785c0.945,0,1.902-0.24,2.779-0.746l20.433-11.798c2.664-1.538,3.577-4.944,2.039-7.608
	S59.04,156.65,56.376,158.188z"/>
<path id="XMLID_25_" fill="#E6C705" d="M208.487,70.368l-20.433,11.796c-2.664,1.538-3.577,4.945-2.039,7.608
	c1.031,1.787,2.903,2.786,4.828,2.786c0.945,0,1.903-0.24,2.78-0.747l20.433-11.797c2.664-1.537,3.577-4.944,2.039-7.608
	C214.556,69.742,211.15,68.83,208.487,70.368z"/>
<path id="XMLID_24_" fill="#E6C705" d="M82.165,188.054l-11.797,20.433c-1.538,2.664-0.625,6.07,2.039,7.608
	c0.877,0.506,1.835,0.747,2.78,0.747c1.924,0,3.797-0.999,4.828-2.786l11.797-20.433c1.538-2.664,0.625-6.07-2.039-7.608
	C87.11,184.478,83.703,185.39,82.165,188.054z"/>
<path id="XMLID_23_" fill="#E6C705" d="M160.227,63.984c0.877,0.507,1.835,0.747,2.779,0.747c1.925,0,3.798-0.999,4.829-2.785
	l11.797-20.433c1.538-2.664,0.625-6.07-2.038-7.608c-2.664-1.537-6.071-0.625-7.609,2.038l-11.797,20.433
	C156.65,59.04,157.563,62.446,160.227,63.984z"/>
</svg>
